<svg width="1280" height="420" viewBox="0 0 1280 420" fill="none" xmlns="http://www.w3.org/2000/svg" role="img" aria-labelledby="title desc">
  <title id="title">Self-healing machine learning pipeline</title>
  <desc id="desc">A clean zero-delay dotted-arrow pipeline showing streaming, monitoring, agent decision, retraining, and deployment.</desc>

  <style>
    .title { font: 800 46px Inter, Segoe UI, Arial, sans-serif; fill: #f7fbff; letter-spacing: 0; }
    .subtitle { font: 500 18px Inter, Segoe UI, Arial, sans-serif; fill: #b5c8d9; letter-spacing: 0; }
    .stage { font: 800 18px Inter, Segoe UI, Arial, sans-serif; fill: #f7fbff; letter-spacing: 0; }
    .stage-sub { font: 500 13px Inter, Segoe UI, Arial, sans-serif; fill: #aec1d2; letter-spacing: 0; }
    .chip { font: 800 13px Inter, Segoe UI, Arial, sans-serif; fill: #061322; letter-spacing: 0; }
    .metric { font: 800 15px Inter, Segoe UI, Arial, sans-serif; fill: #dff7ff; letter-spacing: 0; }
    .panel { fill: #0f1d2c; stroke: #2b435a; stroke-width: 1.2; }
    .node { fill: #10263a; stroke: #35e5d4; stroke-width: 2.4; }
    .connector {
      stroke: url(#flow);
      stroke-width: 5;
      stroke-linecap: round;
      stroke-dasharray: 8 14;
      marker-end: url(#arrow);
    }
  </style>

  <defs>
    <linearGradient id="bg" x1="0" y1="0" x2="1280" y2="420" gradientUnits="userSpaceOnUse">
      <stop stop-color="#07111f"/>
      <stop offset=".55" stop-color="#0b2235"/>
      <stop offset="1" stop-color="#0f3447"/>
    </linearGradient>
    <linearGradient id="flow" x1="180" y1="0" x2="1100" y2="0" gradientUnits="userSpaceOnUse">
      <stop stop-color="#49a6ff"/>
      <stop offset=".5" stop-color="#35e5d4"/>
      <stop offset="1" stop-color="#4ade80"/>
    </linearGradient>
    <marker id="arrow" markerWidth="12" markerHeight="12" refX="9" refY="6" orient="auto" markerUnits="strokeWidth">
      <path d="M2 2 L10 6 L2 10 Z" fill="#35e5d4"/>
    </marker>
  </defs>

  <rect width="1280" height="420" rx="30" fill="url(#bg)"/>
  <path d="M0 312 C184 244 304 344 472 286 C638 230 792 312 962 248 C1080 204 1182 210 1280 174 L1280 420 L0 420 Z" fill="#35e5d4" opacity=".06"/>
  <path d="M0 108 C190 152 316 70 486 116 C648 160 794 84 958 124 C1112 160 1196 112 1280 82" stroke="#49a6ff" stroke-opacity=".18" stroke-width="2"/>

  <text x="72" y="82" class="title">Self-Healing ML Pipeline</text>
  <text x="74" y="118" class="subtitle">Monitor drift. Decide action. Retrain autonomously. Recover performance.</text>

  <rect x="74" y="144" width="155" height="32" rx="16" fill="#35e5d4"/>
  <text x="96" y="165" class="chip">Agentic AI loop</text>
  <rect x="246" y="144" width="132" height="32" rx="16" fill="#fbbf24"/>
  <text x="267" y="165" class="chip">Fraud detection</text>
  <rect x="395" y="144" width="118" height="32" rx="16" fill="#4ade80"/>
  <text x="415" y="165" class="chip">100% healing</text>

  <g transform="translate(72 206)">
    <rect width="1136" height="128" rx="28" class="panel"/>

    <path class="connector" d="M142 68 H282"/>
    <path class="connector" d="M370 68 H510"/>
    <path class="connector" d="M598 68 H738"/>
    <path class="connector" d="M826 68 H966"/>

    <g transform="translate(58 24)">
      <text x="-8" y="20" class="stage">Streaming</text>
      <circle class="node" cx="36" cy="44" r="26"/>
      <text x="0" y="98" class="stage-sub">18 batches</text>
    </g>

    <g transform="translate(286 24)">
      <text x="-14" y="20" class="stage">Monitoring</text>
      <circle class="node" cx="36" cy="44" r="26"/>
      <text x="-20" y="98" class="stage-sub">F1, ROC-AUC, KL</text>
    </g>

    <g transform="translate(514 24)">
      <text x="-38" y="20" class="stage">Agent Decision</text>
      <circle class="node" cx="36" cy="44" r="26"/>
      <text x="-14" y="98" class="stage-sub">continue or heal</text>
    </g>

    <g transform="translate(742 24)">
      <text x="-20" y="20" class="stage">Retraining</text>
      <circle class="node" cx="36" cy="44" r="26"/>
      <text x="-20" y="98" class="stage-sub">LR, RF, XGBoost</text>
    </g>

    <g transform="translate(970 24)">
      <text x="-4" y="20" class="stage">Deploy</text>
      <circle class="node" cx="36" cy="44" r="26"/>
      <text x="-24" y="98" class="stage-sub">feedback loop</text>
    </g>
  </g>

  <text x="74" y="376" class="metric">Best F1: 0.8157 baseline | Average F1 gain after healing: +0.0454 | Retraining events: 3 | Success rate: 100%</text>
</svg>
