<svg width="1280" height="720" viewBox="0 0 1280 720" fill="none" xmlns="http://www.w3.org/2000/svg" role="img" aria-labelledby="title desc">
  <title id="title">Self-healing ML results dashboard</title>
  <desc id="desc">A visual dashboard summarizing baseline model performance, self-healing improvement, recovery events, and agent decision distribution.</desc>
  <style>
    .title { font: 800 42px Inter, Segoe UI, Arial, sans-serif; fill: #f8fbff; letter-spacing: 0; }
    .subtitle { font: 500 18px Inter, Segoe UI, Arial, sans-serif; fill: #afc2d6; letter-spacing: 0; }
    .section { font: 800 21px Inter, Segoe UI, Arial, sans-serif; fill: #f8fbff; letter-spacing: 0; }
    .label { font: 650 15px Inter, Segoe UI, Arial, sans-serif; fill: #dcecff; letter-spacing: 0; }
    .muted { font: 500 13px Inter, Segoe UI, Arial, sans-serif; fill: #91a7ba; letter-spacing: 0; }
    .metric { font: 850 34px Inter, Segoe UI, Arial, sans-serif; fill: #3eead9; letter-spacing: 0; }
    .smallmetric { font: 800 22px Inter, Segoe UI, Arial, sans-serif; fill: #f8fbff; letter-spacing: 0; }
    .win { font: 800 15px Inter, Segoe UI, Arial, sans-serif; fill: #07111f; letter-spacing: 0; }
    .card { fill: #0e1825; stroke: #31445a; stroke-width: 1.2; }
    .inner { fill: #132235; stroke: #2c4055; stroke-width: 1; }
    .grid { stroke: #25384c; stroke-width: 1; }
    .glow { filter: drop-shadow(0 0 10px rgba(62,234,217,.35)); }
    .bar { animation: grow 1.8s ease-out both; transform-box: fill-box; transform-origin: left center; }
    .bar.b2 { animation-delay: .15s; }
    .bar.b3 { animation-delay: .3s; }
    .pulse { animation: pulse 2.4s ease-in-out infinite; transform-origin: center; }
    @keyframes grow { from { transform: scaleX(0.08); opacity: .35; } to { transform: scaleX(1); opacity: 1; } }
    @keyframes pulse { 0%, 100% { opacity: .78; transform: scale(1); } 50% { opacity: 1; transform: scale(1.04); } }
    @media (prefers-reduced-motion: reduce) { .bar, .pulse { animation: none; } }
  </style>

  <defs>
    <linearGradient id="bg" x1="0" y1="0" x2="1280" y2="720" gradientUnits="userSpaceOnUse">
      <stop stop-color="#07111f"/>
      <stop offset="0.54" stop-color="#0b1c2c"/>
      <stop offset="1" stop-color="#102d40"/>
    </linearGradient>
    <linearGradient id="teal" x1="0" y1="0" x2="1" y2="0">
      <stop stop-color="#49a6ff"/>
      <stop offset="1" stop-color="#3eead9"/>
    </linearGradient>
    <linearGradient id="green" x1="0" y1="0" x2="1" y2="0">
      <stop stop-color="#4ade80"/>
      <stop offset="1" stop-color="#bef264"/>
    </linearGradient>
    <linearGradient id="pink" x1="0" y1="0" x2="1" y2="0">
      <stop stop-color="#ff6aa2"/>
      <stop offset="1" stop-color="#fbbf24"/>
    </linearGradient>
  </defs>

  <rect width="1280" height="720" rx="28" fill="url(#bg)"/>
  <circle cx="1080" cy="80" r="170" fill="#3eead9" opacity="0.05"/>
  <circle cx="115" cy="650" r="220" fill="#49a6ff" opacity="0.06"/>

  <text x="58" y="70" class="title">Key Results at a Glance</text>
  <text x="60" y="104" class="subtitle">Model selection, drift response, recovery, and agent behavior summarized visually.</text>

  <g transform="translate(58 142)">
    <rect width="544" height="246" rx="22" class="card"/>
    <text x="28" y="42" class="section">Baseline model selection</text>
    <text x="28" y="70" class="muted">F1-score is prioritized because fraud detection is highly imbalanced.</text>

    <text x="28" y="116" class="label">Logistic Regression</text>
    <rect x="198" y="101" width="270" height="20" rx="10" fill="#233449"/>
    <rect class="bar" x="198" y="101" width="41" height="20" rx="10" fill="url(#teal)"/>
    <text x="480" y="116" class="muted">0.1245</text>

    <text x="28" y="158" class="label">Random Forest</text>
    <rect x="198" y="143" width="270" height="20" rx="10" fill="#233449"/>
    <rect class="bar b2 glow" x="198" y="143" width="270" height="20" rx="10" fill="url(#green)"/>
    <text x="480" y="158" class="smallmetric">0.8157</text>

    <text x="28" y="200" class="label">XGBoost</text>
    <rect x="198" y="185" width="270" height="20" rx="10" fill="#233449"/>
    <rect class="bar b3" x="198" y="185" width="176" height="20" rx="10" fill="url(#pink)"/>
    <text x="480" y="200" class="muted">0.5305</text>

    <rect x="28" y="214" width="188" height="26" rx="13" fill="#bef264"/>
    <text x="46" y="232" class="win">Winner: Random Forest</text>
  </g>

  <g transform="translate(632 142)">
    <rect width="590" height="246" rx="22" class="card"/>
    <text x="28" y="42" class="section">Self-healing impact</text>
    <text x="28" y="70" class="muted">Average F1 improved after autonomous retraining events.</text>

    <rect x="28" y="101" width="155" height="100" rx="18" class="inner"/>
    <text x="54" y="133" class="muted">Before healing</text>
    <text x="54" y="172" class="metric">0.7255</text>

    <path d="M208 151 H272" stroke="#3eead9" stroke-width="5" stroke-linecap="round"/>
    <path d="M256 136 L274 151 L256 166" stroke="#3eead9" stroke-width="5" stroke-linecap="round" stroke-linejoin="round"/>

    <rect x="300" y="101" width="155" height="100" rx="18" class="inner pulse"/>
    <text x="326" y="133" class="muted">After healing</text>
    <text x="326" y="172" class="metric">0.7709</text>

    <rect x="476" y="101" width="86" height="100" rx="18" fill="#102f2b" stroke="#3eead9" stroke-opacity="0.5"/>
    <text x="496" y="133" class="muted">Gain</text>
    <text x="494" y="172" class="smallmetric">+0.0454</text>

    <text x="30" y="226" class="label">Retraining events: 3</text>
    <text x="238" y="226" class="label">Successful recoveries: 3 / 3</text>
    <text x="466" y="226" class="label">Success: 100%</text>
  </g>

  <g transform="translate(58 422)">
    <rect width="544" height="226" rx="22" class="card"/>
    <text x="28" y="42" class="section">Recovery events</text>
    <text x="28" y="70" class="muted">Every retraining event improved F1 under severe drift.</text>

    <line x1="78" y1="98" x2="78" y2="188" class="grid"/>
    <line x1="258" y1="98" x2="258" y2="188" class="grid"/>
    <line x1="438" y1="98" x2="438" y2="188" class="grid"/>

    <circle cx="78" cy="154" r="36" fill="#12304a" stroke="#49a6ff"/>
    <text x="57" y="150" class="muted">Batch</text>
    <text x="60" y="176" class="smallmetric">12</text>
    <text x="132" y="145" class="label">0.6667 -> 0.8571</text>
    <text x="132" y="171" class="metric">+28.6%</text>

    <circle cx="258" cy="154" r="36" fill="#123b38" stroke="#3eead9"/>
    <text x="237" y="150" class="muted">Batch</text>
    <text x="240" y="176" class="smallmetric">15</text>
    <text x="312" y="145" class="label">0.6667 -> 0.9091</text>
    <text x="312" y="171" class="metric">+36.4%</text>

    <circle cx="438" cy="154" r="36" fill="#273516" stroke="#bef264"/>
    <text x="417" y="150" class="muted">Batch</text>
    <text x="420" y="176" class="smallmetric">16</text>
    <text x="28" y="210" class="label">Batch 16 delivered the largest recovery: 0.6154 -> 1.0000 (+62.5%).</text>
  </g>

  <g transform="translate(632 422)">
    <rect width="590" height="226" rx="22" class="card"/>
    <text x="28" y="42" class="section">Agent decisions across 18 batches</text>
    <text x="28" y="70" class="muted">The controller mostly continued, but intervened when drift and F1 signaled risk.</text>

    <text x="28" y="113" class="label">Continue</text>
    <rect x="190" y="98" width="300" height="18" rx="9" fill="#233449"/>
    <rect class="bar" x="190" y="98" width="300" height="18" rx="9" fill="url(#teal)"/>
    <text x="510" y="113" class="label">8</text>

    <text x="28" y="145" class="label">Warning</text>
    <rect x="190" y="130" width="300" height="18" rx="9" fill="#233449"/>
    <rect class="bar b2" x="190" y="130" width="150" height="18" rx="9" fill="#fbbf24"/>
    <text x="510" y="145" class="label">4</text>

    <text x="28" y="177" class="label">Retrain</text>
    <rect x="190" y="162" width="300" height="18" rx="9" fill="#233449"/>
    <rect class="bar b3" x="190" y="162" width="112" height="18" rx="9" fill="#4ade80"/>
    <text x="510" y="177" class="label">3</text>

    <text x="28" y="209" class="label">Tune + review</text>
    <rect x="190" y="194" width="300" height="18" rx="9" fill="#233449"/>
    <rect class="bar b3" x="190" y="194" width="112" height="18" rx="9" fill="#ff6aa2"/>
    <text x="510" y="209" class="label">3</text>
  </g>
</svg>
